<svg xmlns="http://www.w3.org/2000/svg" width="94" height="94" fill="none" viewBox="0 0 94 94"><g filter="url(#a)"><path fill="#69b9ff" d="M0 0h94v94H0z"/><path stroke="#fff" stroke-width="10" d="M5 5h84v84H5z"/><path fill="#fff" fill-rule="evenodd" d="M65.8 18.8H28.2L9.4 37.6v28.2c0 5.327 4.387 9.4 9.4 9.4h56.4c5.327 0 9.4-4.073 9.4-9.4V37.6zm-35.093 6.267h32.586L75.827 37.6H59.533c0 6.267-5.64 12.533-12.533 12.533S34.467 43.867 34.467 37.6H18.173zM78.333 65.8c0 1.88-1.253 3.133-3.133 3.133H18.8c-1.88 0-3.133-1.566-3.133-3.133V43.867H29.14C31.96 51.073 39.167 56.4 47 56.4s15.04-5.327 17.547-12.533h13.786z" clip-rule="evenodd"/></g><defs><filter id="a" width="94" height="94" x="0" y="0" color-interpolation-filters="sRGB" filterUnits="userSpaceOnUse"><feFlood flood-opacity="0" result="BackgroundImageFix"/><feColorMatrix in="SourceAlpha" result="hardAlpha" values="0 0 0 0 0 0 0 0 0 0 0 0 0 0 0 0 0 0 127 0"/><feOffset/><feColorMatrix values="0 0 0 0 0.180392 0 0 0 0 0.615686 0 0 0 0 1 0 0 0 1 0"/><feBlend in2="BackgroundImageFix" result="effect1_dropShadow_1_48"/><feBlend in="SourceGraphic" in2="effect1_dropShadow_1_48" result="shape"/></filter></defs></svg>